<svg width="100" height="100" viewBox="0 0 100 100" fill="none" xmlns="http://www.w3.org/2000/svg" style="width: 150px; height: 150px;"><style>
     .line-grow1 {animation:line-grow1 4s -2.5s infinite; stroke-dasharray: 140; stroke-dashoffset: 140;}
     @keyframes line-grow1 {
         45%{stroke-dashoffset: 140;}
         90%{stroke-dashoffset: 0;}
         100%{stroke-dashoffset: 0;}
     }
     @media (prefers-reduced-motion: reduce) {
         .line-grow1 {
             animation: none;
         }
     }
    </style><path class="fill1" d="M23.5 84.2743V88.0215C23.5 88.5738 23.9477 89.0215 24.5 89.0215H41.5463C42.0801 89.0215 42.5184 88.6079 42.5348 88.0743C42.6219 85.2424 42.7589 76.6865 41.5 71.0215C40.5674 66.8248 33.5465 61.7584 32.6044 61.0945C32.5335 61.0445 32.4714 60.9882 32.415 60.9223L23.7109 50.7676C23.5738 50.6077 23.3907 50.493 23.1836 50.4549C21.0848 50.0685 18 50.5215 18 50.5215V30.0215C18 30.0215 18 27.0215 14 27.0215C10 27.0215 10 30.0215 10 30.0215V58.7688C10 58.9347 10.0413 59.098 10.1201 59.2439L23.3799 83.7991C23.4587 83.9451 23.5 84.1084 23.5 84.2743Z" fill="#fff" stroke-width="2px" style="animation-duration: 4s;"></path><path class="stroke1" d="M18 50.5215V30.0215C18 30.0215 18 30.0215 18 30.0215C18 30.0215 18 27.0215 14 27.0215C10 27.0215 10 30.0215 10 30.0215C10 30.0215 10 30.0215 10 30.0215V58.7688C10 58.9347 10.0413 59.098 10.1201 59.2439L23.3799 83.7991C23.4587 83.9451 23.5 84.1084 23.5 84.2743V88.0215C23.5 88.5738 23.9477 89.0215 24.5 89.0215H41.5463C42.0801 89.0215 42.5184 88.6079 42.5348 88.0743C42.6219 85.2424 42.7589 76.6865 41.5 71.0215C40.5674 66.8248 33.5465 61.7584 32.6044 61.0945C32.5335 61.0445 32.4714 60.9882 32.415 60.9223L23.7109 50.7676C23.5738 50.6077 23.3907 50.493 23.1836 50.4549C21.0848 50.0685 18 50.5215 18 50.5215ZM18 50.5215C18 50.5215 16 54.5215 18 56.5215L28.5 67.5215" stroke="#000" stroke-width="2px" style="animation-duration: 4s;"></path><path class="fill1" d="M76.088 84.2743V88.0215C76.088 88.5738 75.6403 89.0215 75.088 89.0215H58.0418C57.5079 89.0215 57.0696 88.6079 57.0532 88.0743C56.9662 85.2424 56.8291 76.6865 58.088 71.0215C59.0206 66.8248 66.0415 61.7584 66.9836 61.0945C67.0545 61.0445 67.1166 60.9882 67.1731 60.9223L75.8771 50.7676C76.0142 50.6077 76.1973 50.493 76.4044 50.4549C78.5032 50.0685 81.588 50.5215 81.588 50.5215V30.0215C81.588 30.0215 81.588 27.0215 85.588 27.0215C89.588 27.0215 89.588 30.0215 89.588 30.0215V58.7688C89.588 58.9347 89.5467 59.098 89.4679 59.2439L76.2081 83.7991C76.1293 83.9451 76.088 84.1084 76.088 84.2743Z" fill="#fff" stroke-width="2px" style="animation-duration: 4s;"></path><path class="stroke1" d="M81.588 50.5215V30.0215C81.588 30.0215 81.588 30.0215 81.588 30.0215C81.588 30.0215 81.588 27.0215 85.588 27.0215C89.588 27.0215 89.588 30.0215 89.588 30.0215C89.588 30.0215 89.588 30.0215 89.588 30.0215V58.7688C89.588 58.9347 89.5467 59.098 89.4679 59.2439L76.2081 83.7991C76.1293 83.9451 76.088 84.1084 76.088 84.2743V88.0215C76.088 88.5738 75.6403 89.0215 75.088 89.0215H58.0418C57.5079 89.0215 57.0696 88.6079 57.0532 88.0743C56.9662 85.2424 56.8291 76.6865 58.088 71.0215C59.0206 66.8248 66.0415 61.7584 66.9836 61.0945C67.0545 61.0445 67.1166 60.9882 67.1731 60.9223L75.8771 50.7676C76.0142 50.6077 76.1973 50.493 76.4044 50.4549C78.5032 50.0685 81.588 50.5215 81.588 50.5215ZM81.588 50.5215C81.588 50.5215 83.588 54.5215 81.588 56.5215L71.088 67.5215" stroke="#000" stroke-width="2px" style="animation-duration: 4s;"></path><g class="line-grow1" style="animation-duration: 4s;"><path class="fill2" d="M60.5 55.5216C56.9783 58.1681 49.5 58.0216 49.5 58.0216C49.5 58.0216 42.0217 58.1681 38.5 55.5216C34.7995 52.7406 33 45.0216 33 45.0216C33 45.0216 38.8243 44.4657 42 46.0216C46.9627 48.4529 49.5 58.0216 49.5 58.0216V38.5216C49.5 38.5216 42.0217 38.6681 38.5 36.0216C34.7995 33.2406 33 25.5216 33 25.5216C33 25.5216 38.8573 25.3423 42 27.0216C46.729 29.5484 49.5 38.5216 49.5 38.5216V19.5216C49.5 19.5216 44.4239 20.2115 42 18.5216C39.3486 16.6731 38.5 11.0216 38.5 11.0216C38.5 11.0216 42.4041 10.9035 44.5 12.0216C47.6058 13.6784 49.5 19.5216 49.5 19.5216C49.5 19.5216 51.041 13.2781 53.5 12.0216C55.959 10.765 60.5 11.0216 60.5 11.0216C60.5 11.0216 59.3038 16.7447 56.5 18.5216C54.1675 19.9997 49.5 19.5216 49.5 19.5216V38.5216C49.5 38.5216 51.92 29.6033 56.5 27.0216C59.7719 25.1772 66 25.5216 66 25.5216C66 25.5216 64.2005 33.2406 60.5 36.0216C56.9783 38.6681 49.5 38.5216 49.5 38.5216V58.0216C49.5 58.0216 51.6885 48.5283 56.5 46.0216C59.8084 44.2979 66 45.0216 66 45.0216C66 45.0216 64.2005 52.7406 60.5 55.5216Z" fill="#fff" stroke-width="2px"></path><path class="stroke2" d="M49.5 70.0216V58.0216M49.5 58.0216C49.5 58.0216 56.9783 58.1681 60.5 55.5216C64.2005 52.7406 66 45.0216 66 45.0216C66 45.0216 59.8084 44.2979 56.5 46.0216C51.6885 48.5283 49.5 58.0216 49.5 58.0216ZM49.5 58.0216C49.5 58.0216 42.0217 58.1681 38.5 55.5216C34.7995 52.7406 33 45.0216 33 45.0216C33 45.0216 38.8243 44.4657 42 46.0216C46.9627 48.4529 49.5 58.0216 49.5 58.0216ZM49.5 58.0216V38.5216M49.5 38.5216C49.5 38.5216 56.9783 38.6681 60.5 36.0216C64.2005 33.2406 66 25.5216 66 25.5216C66 25.5216 59.7719 25.1772 56.5 27.0216C51.92 29.6033 49.5 38.5216 49.5 38.5216ZM49.5 38.5216C49.5 38.5216 42.0217 38.6681 38.5 36.0216C34.7995 33.2406 33 25.5216 33 25.5216C33 25.5216 38.8573 25.3423 42 27.0216C46.729 29.5484 49.5 38.5216 49.5 38.5216ZM49.5 38.5216V19.5216M49.5 19.5216C49.5 19.5216 54.1675 19.9997 56.5 18.5216C59.3038 16.7447 60.5 11.0216 60.5 11.0216C60.5 11.0216 55.959 10.765 53.5 12.0216C51.041 13.2781 49.5 19.5216 49.5 19.5216ZM49.5 19.5216C49.5 19.5216 44.4239 20.2115 42 18.5216C39.3486 16.6731 38.5 11.0216 38.5 11.0216C38.5 11.0216 42.4041 10.9035 44.5 12.0216C47.6058 13.6784 49.5 19.5216 49.5 19.5216Z" stroke="#000" stroke-width="2px"></path></g></svg>